<svg id="Calque_1" data-name="Calque 1" xmlns="http://www.w3.org/2000/svg" viewBox="0 0 210.95 60.27"><defs><style>.cls-1{fill:#fff;}</style></defs><title>hors_champs_logo</title><path class="cls-1" d="M174.25,25.5a7.14,7.14,0,0,0,.4-2.4c0-4.57-3.89-6.53-7.65-8.42-3.11-1.56-6.05-3-6.05-5.94,0-2.67,2.13-4.54,5.17-4.54a8.92,8.92,0,0,1,5.64,2L173,4.81A9.69,9.69,0,0,0,166.12,2c-4.36,0-7.53,2.84-7.53,6.74,0,4.34,3.75,6.22,7.38,8,3.24,1.63,6.31,3.17,6.31,6.37a4.88,4.88,0,0,1-.6,2.36H138.49l-5.56-8.33s6.58-.48,6.58-7.39c0-4.95-4.14-7.61-8-7.61a27.23,27.23,0,0,0-7.53.91V25.5H101.64a14.09,14.09,0,1,0-20.88,0H58.45V2.5H56.08V13.91h-14V2.5H39.74v23h-38V26h211V25.5H174.25m-118.17,0h-14V16.06h14Zm42.16,0H84.15a12,12,0,0,1-4.51-9.42,11.56,11.56,0,1,1,23.11,0A12,12,0,0,1,98.24,25.5ZM126.31,4.59l.46,0a34.84,34.84,0,0,1,5-.26,5.47,5.47,0,0,1,5.41,5.5A5.29,5.29,0,0,1,132,15.19h-5.67Zm0,20.91V17.35h4l5.55,8.15Z" transform="translate(-1.71 -2)"/><path class="cls-1" d="M15.8,60.11a11.94,11.94,0,0,1,0-23.86,11,11,0,0,1,7.67,3.07L24.83,38a12.57,12.57,0,0,0-9-3.86,14.09,14.09,0,1,0,9.59,24.4L23.92,57a12.2,12.2,0,0,1-8.12,3.08" transform="translate(-1.71 -2)"/><polyline class="cls-1" points="43.81 32.6 41.44 32.6 41.44 59.77 43.81 59.77 43.81 46.16 57.79 46.16 57.79 59.77 60.16 59.77 60.16 32.6 57.79 32.6 57.79 44 43.81 44 43.81 32.6"/><path class="cls-1" d="M79.45,61.18l2.2.93,3.56-8.57H96.32l3.56,8.58,2.19-.93L90.76,34.53,79.45,61.18M86,51.68l4.75-11.49,4.8,11.49Z" transform="translate(-1.71 -2)"/><polyline class="cls-1" points="117.94 33.19 117.94 59.77 120.31 59.77 120.31 41.2 130.12 58.41 139.93 41.2 139.93 59.77 142.29 59.77 142.29 33.19 130.12 54.31 117.94 33.19"/><path class="cls-1" d="M171.45,34.26a27.48,27.48,0,0,0-7.74.92V61.77h2.37V50.07h5.37a7.91,7.91,0,0,0,0-15.81m0,13.69h-5.37V36.69l.45-.06a35.18,35.18,0,0,1,5-.25,5.79,5.79,0,0,1,0,11.57Z" transform="translate(-1.71 -2)"/><path class="cls-1" d="M205,46.78c-3.11-1.57-6-3-6-5.94,0-2.67,2.12-4.54,5.16-4.54a8.9,8.9,0,0,1,5.64,2L211,36.91a9.65,9.65,0,0,0-6.88-2.81c-4.36,0-7.53,2.83-7.53,6.74,0,4.34,3.75,6.22,7.38,8,3.25,1.63,6.31,3.16,6.31,6.37,0,1.45-.6,4.83-6.16,4.83a10,10,0,0,1-6.27-2.21l-1.38,1.46a11.43,11.43,0,0,0,7.65,3c3.93,0,8.53-1.85,8.53-7.08,0-4.57-3.89-6.52-7.65-8.41" transform="translate(-1.71 -2)"/></svg>